<?xml version="1.0" encoding="utf-8"?>
<!-- Generator: Adobe Illustrator 15.0.0, SVG Export Plug-In  -->
<!DOCTYPE svg PUBLIC "-//W3C//DTD SVG 1.1//EN" "http://www.w3.org/Graphics/SVG/1.1/DTD/svg11.dtd" [
	<!ENTITY ns_flows "http://ns.adobe.com/Flows/1.0/">
]>
<svg version="1.1"
	 xmlns="http://www.w3.org/2000/svg" xmlns:xlink="http://www.w3.org/1999/xlink" xmlns:a="http://ns.adobe.com/AdobeSVGViewerExtensions/3.0/"
	 x="0px" y="0px" width="48px" height="48px" viewBox="-0.201 -0.201 48 48"
	 overflow="visible" enable-background="new -0.201 -0.201 48 48" xml:space="preserve">
<defs>
</defs>
<path fill="#303030" d="M23.799,0.836c-12.682,0-22.964,10.28-22.964,22.964c0,12.682,10.282,22.964,22.964,22.964
	c12.683,0,22.964-10.282,22.964-22.964C46.763,11.116,36.482,0.836,23.799,0.836z M23.799,28.851c-2.79,0-5.052-2.261-5.052-5.051
	c0-2.791,2.262-5.052,5.052-5.052c2.791,0,5.052,2.261,5.052,5.052C28.851,26.59,26.589,28.851,23.799,28.851z"/>
<path fill="#FFF200" d="M23.799,36.877c-7.211,0-13.079-5.866-13.079-13.077c0-7.212,5.867-13.079,13.079-13.079
	c7.212,0,13.078,5.867,13.078,13.079C36.877,31.011,31.011,36.877,23.799,36.877z M23.799,11.618
	c-6.717,0-12.182,5.464-12.182,12.182c0,6.717,5.465,12.182,12.182,12.182c6.717,0,12.182-5.465,12.182-12.182
	C35.981,17.082,30.516,11.618,23.799,11.618z"/>
<path fill="#FFF200" d="M23.799,47.598C10.676,47.598,0,36.922,0,23.8C0,10.676,10.676,0,23.799,0c13.123,0,23.8,10.676,23.8,23.8
	C47.599,36.922,36.922,47.598,23.799,47.598z M23.799,2.13C11.851,2.13,2.13,11.851,2.13,23.8c0,11.947,9.72,21.668,21.668,21.668
	S45.468,35.747,45.468,23.8C45.468,11.851,35.747,2.13,23.799,2.13z"/>
<path fill="#FFF200" d="M23.799,14.613c-5.073,0-9.186,4.113-9.186,9.187c0,5.072,4.112,9.186,9.186,9.186
	c5.073,0,9.186-4.113,9.186-9.186C32.984,18.727,28.872,14.613,23.799,14.613z M23.799,28.392c-2.536,0-4.593-2.057-4.593-4.592
	c0-2.537,2.057-4.593,4.593-4.593c2.537,0,4.593,2.056,4.593,4.593C28.392,26.335,26.336,28.392,23.799,28.392z"/>
</svg>
