<?xml version="1.0" encoding="utf-8"?>
<!-- Generator: Adobe Illustrator 15.0.0, SVG Export Plug-In  -->
<!DOCTYPE svg PUBLIC "-//W3C//DTD SVG 1.1//EN" "http://www.w3.org/Graphics/SVG/1.1/DTD/svg11.dtd" [
	<!ENTITY ns_flows "http://ns.adobe.com/Flows/1.0/">
]>
<svg version="1.1"
	 xmlns="http://www.w3.org/2000/svg" xmlns:xlink="http://www.w3.org/1999/xlink" xmlns:a="http://ns.adobe.com/AdobeSVGViewerExtensions/3.0/"
	 x="0px" y="0px" width="62px" height="48px" viewBox="0.033 -0.201 62 48"
	 overflow="visible" enable-background="new 0.033 -0.201 62 48" xml:space="preserve">
<defs>
</defs>
<polygon fill="#303030" points="13.604,36.052 3.923,22.321 13.604,8.586 9.679,8.586 0,22.321 9.679,36.052 "/>
<path fill="#303030" d="M37.948,0.836c-12.682,0-22.964,10.28-22.964,22.964c0,12.682,10.282,22.964,22.964,22.964
	c12.683,0,22.964-10.282,22.964-22.964C60.913,11.116,50.631,0.836,37.948,0.836z M37.948,28.851c-2.79,0-5.052-2.261-5.052-5.051
	c0-2.791,2.262-5.052,5.052-5.052c2.791,0,5.052,2.261,5.052,5.052C43,26.59,40.739,28.851,37.948,28.851z"/>
<path fill="#FFF200" d="M37.948,36.877c-7.211,0-13.079-5.866-13.079-13.077c0-7.212,5.867-13.079,13.079-13.079
	c7.212,0,13.078,5.867,13.078,13.079C51.026,31.011,45.16,36.877,37.948,36.877z M37.948,11.618
	c-6.717,0-12.182,5.464-12.182,12.182c0,6.717,5.465,12.182,12.182,12.182c6.717,0,12.182-5.465,12.182-12.182
	C50.13,17.082,44.666,11.618,37.948,11.618z"/>
<path fill="#FFF200" d="M37.948,47.598c-13.123,0-23.799-10.676-23.799-23.798C14.149,10.676,24.826,0,37.948,0
	c13.123,0,23.8,10.676,23.8,23.8C61.748,36.922,51.071,47.598,37.948,47.598z M37.948,2.13C26,2.13,16.28,11.851,16.28,23.8
	c0,11.947,9.72,21.668,21.668,21.668S59.618,35.747,59.618,23.8C59.618,11.851,49.896,2.13,37.948,2.13z"/>
<path fill="#FFF200" d="M37.948,14.613c-5.073,0-9.186,4.113-9.186,9.187c0,5.072,4.112,9.186,9.186,9.186
	c5.073,0,9.186-4.113,9.186-9.186C47.134,18.727,43.021,14.613,37.948,14.613z M37.948,28.392c-2.536,0-4.593-2.057-4.593-4.592
	c0-2.537,2.057-4.593,4.593-4.593c2.537,0,4.593,2.056,4.593,4.593C42.542,26.335,40.485,28.392,37.948,28.392z"/>
</svg>
