<?xml version="1.0" encoding="utf-8"?>
<!-- Generator: Adobe Illustrator 15.0.0, SVG Export Plug-In  -->
<!DOCTYPE svg PUBLIC "-//W3C//DTD SVG 1.1//EN" "http://www.w3.org/Graphics/SVG/1.1/DTD/svg11.dtd" [
	<!ENTITY ns_flows "http://ns.adobe.com/Flows/1.0/">
]>
<svg version="1.1"
	 xmlns="http://www.w3.org/2000/svg" xmlns:xlink="http://www.w3.org/1999/xlink" xmlns:a="http://ns.adobe.com/AdobeSVGViewerExtensions/3.0/"
	 x="0px" y="0px" width="96px" height="96px" viewBox="-1.253 -0.851 96 96"
	 overflow="visible" enable-background="new -1.253 -0.851 96 96" xml:space="preserve">
<defs>
</defs>
<path fill="#303030" d="M46.746,1.642c-24.911,0-45.105,20.193-45.105,45.106c0,24.909,20.194,45.105,45.105,45.105
	s45.105-20.196,45.105-45.106C91.852,21.834,71.657,1.642,46.746,1.642z M46.746,56.669c-5.48,0-9.923-4.441-9.923-9.921
	c0-5.482,4.442-9.923,9.923-9.923s9.923,4.44,9.923,9.923C56.669,52.228,52.227,56.669,46.746,56.669z"/>
<path fill="#FFF200" d="M46.746,72.434c-14.166,0-25.69-11.522-25.69-25.686c0-14.166,11.524-25.69,25.69-25.69
	s25.688,11.524,25.688,25.69C72.435,60.911,60.912,72.434,46.746,72.434z M46.746,22.82c-13.193,0-23.928,10.732-23.928,23.928
	c0,13.193,10.734,23.927,23.928,23.927c13.195,0,23.929-10.733,23.929-23.927C70.675,33.553,59.941,22.82,46.746,22.82z"/>
<path fill="#FFF200" d="M46.746,93.492C20.972,93.492,0,72.522,0,46.748C0,20.97,20.972,0,46.746,0
	c25.776,0,46.748,20.969,46.748,46.747C93.494,72.522,72.522,93.492,46.746,93.492z M46.746,4.184
	c-23.469,0-42.562,19.094-42.562,42.564c0,23.467,19.094,42.561,42.562,42.561s42.562-19.094,42.562-42.562
	C89.309,23.276,70.215,4.184,46.746,4.184z"/>
<path fill="#FFF200" d="M46.746,28.703c-9.965,0-18.042,8.08-18.042,18.045c0,9.963,8.077,18.042,18.042,18.042
	s18.042-8.079,18.042-18.042C64.788,36.783,56.711,28.703,46.746,28.703z M46.746,55.767c-4.981,0-9.021-4.039-9.021-9.019
	c0-4.983,4.04-9.021,9.021-9.021c4.983,0,9.021,4.038,9.021,9.021C55.768,51.728,51.729,55.767,46.746,55.767z"/>
</svg>
