<?xml version="1.0" encoding="utf-8"?>
<!-- Generator: Adobe Illustrator 15.0.0, SVG Export Plug-In  -->
<!DOCTYPE svg PUBLIC "-//W3C//DTD SVG 1.1//EN" "http://www.w3.org/Graphics/SVG/1.1/DTD/svg11.dtd" [
	<!ENTITY ns_flows "http://ns.adobe.com/Flows/1.0/">
]>
<svg version="1.1"
	 xmlns="http://www.w3.org/2000/svg" xmlns:xlink="http://www.w3.org/1999/xlink" xmlns:a="http://ns.adobe.com/AdobeSVGViewerExtensions/3.0/"
	 x="0px" y="0px" width="125px" height="125px" viewBox="-4 -4.001 125 125"
	 overflow="visible" enable-background="new -4 -4.001 125 125" xml:space="preserve">
<defs>
</defs>
<path id="loading-7-icon_2_" fill="#303030" d="M106.902,91.45C97.125,105.86,81.115,115.674,62.76,117v-11.428
	c10.984-0.979,21.182-5.738,29.074-13.65c1.925-1.931,3.662-3.999,5.204-6.182L106.902,91.45z M105.642,58.499
	c0,6.97-1.497,13.708-4.335,19.849l9.861,5.709C114.904,76.331,117,67.661,117,58.499c0-9.161-2.096-17.831-5.83-25.557
	l-9.863,5.708C104.145,44.791,105.642,51.53,105.642,58.499z M62.76,11.426c10.984,0.98,21.182,5.738,29.074,13.651
	c1.925,1.93,3.662,3.998,5.205,6.183l9.863-5.711C97.125,11.139,81.115,1.324,62.76,0V11.426z M11.36,58.499
	c0-6.969,1.497-13.708,4.333-19.849l-9.861-5.709C2.096,40.668,0,49.338,0,58.499c0,9.162,2.096,17.832,5.833,25.558l9.86-5.709
	C12.856,72.207,11.36,65.469,11.36,58.499z M19.963,31.258c1.542-2.183,3.279-4.251,5.204-6.181
	c7.892-7.913,18.089-12.671,29.073-13.651V0C35.885,1.324,19.876,11.139,10.098,25.549L19.963,31.258z M54.24,105.572
	c-10.984-0.979-21.182-5.738-29.073-13.65c-1.925-1.93-3.662-3.998-5.204-6.182l-9.864,5.71c9.777,14.41,25.787,24.224,44.141,25.55
	V105.572z"/>
</svg>
